<svg xmlns="http://www.w3.org/2000/svg" xmlns:xlink="http://www.w3.org/1999/xlink">

  <symbol viewBox="0 0 24 24" id="arrow-left" xmlns="http://www.w3.org/2000/svg">
    <path d="M11 23l2.8-2.8L7.6 14H24v-4H7.6l6.2-6.2L11 1 0 12l11 11z"/>
  </symbol>


    <symbol viewBox="0 0 24 24" id="arrow-right" xmlns="http://www.w3.org/2000/svg">
      <path d="M13.025 1l-2.847 2.828 6.176 6.176H0v3.992h16.354l-6.176 6.176L13.025 23 24 12z"/>
    </symbol>


    <symbol viewBox="0 0 80 80" id="burger-base" xmlns="http://www.w3.org/2000/svg">
      <path class="cst0" d="M61.3 18.9l-21.2-8.8-21.2 8.8-8.8 21.3 8.8 21.2 21.3 8.7 21.2-8.8 8.7-21.2z"/>
    </symbol>


    <symbol id="burger-dots" viewBox="0 0 80 80" xmlns="http://www.w3.org/2000/svg">
      <style>.dst0{fill:#fff}</style>
      <circle class="dst0" cx="40.1" cy="5.2" r="1.9"/>
      <circle class="dst0" cx="40.1" cy="75.1" r="1.9"/>
      <g>
        <circle class="dst0" cx="5.1" cy="40.1" r="1.9"/>
        <circle class="dst0" cx="75.1" cy="40.1" r="1.9"/>
      </g>
    </symbol>


    <symbol id="burger-line" viewBox="0 0 80 80" xmlns="http://www.w3.org/2000/svg">
      <style>.est0{fill:#fff}</style>
      <path class="est0" d="M65.4 14.8L40.1 4.3 14.8 14.8 4.3 40.2l10.5 25.3L40.2 76l25.3-10.5L76 40.2 65.4 14.8zm-1.1 49.5l-24.2 10-24.1-10L6 40.1l10-24.2L40.1 6l24.2 10 10 24.2-10 24.1z"/>
    </symbol>


    <symbol viewBox="0 0 24 24" id="close" xmlns="http://www.w3.org/2000/svg">
      <title>close</title>
      <path d="M24 21l-9.2-9.1 9.1-9.2L21 0l-9.1 9.2L2.8 0 0 2.9 9.1 12 0 21.1 2.9 24l9.1-9.2 9.2 9.1z"/>
    </symbol>


    <symbol viewBox="0 0 470.5 470.5" id="facebook" xmlns="http://www.w3.org/2000/svg">
      <path d="M271.5 154.2v-40.5c0-6.1.3-10.8.8-14.1.6-3.3 1.9-6.6 3.9-9.9 2-3.2 5.2-5.5 9.7-6.7 4.5-1.2 10.4-1.9 17.9-1.9h40.5V0h-64.8c-37.5 0-64.4 8.9-80.8 26.7-16.4 17.8-24.6 44-24.6 78.7v48.8h-48.5v81.1h48.5v235.3h97.4V235.3h64.8l8.6-81.1h-73.4z"/>
    </symbol>


    <!--<symbol viewBox="0 0 56.2 90" id="flag" xmlns="http://www.w3.org/2000/svg">
      <path d="M47.9 0h8.3v90h-8.3zM31.9 0h8.3v90h-8.3zM0 42.8h8.3V90H0zM16 42.8h8.3V90H16zM0 35.2h24.2V0H0v35.2zm13.6-14.3l-4 5.5v-6.8l-6.4-2.1 6.4-2.1V8.6l4 5.5L20 12l-4 5.5 4 5.5-6.4-2.1z"/>
      <path d="M4.1 6.5h16V29h-16z"/>
    </symbol>-->

    <symbol viewBox="0 0 256 254" id="flag" xmlns="http://www.w3.org/2000/svg">
      <path d="M27.008 53.504l-24.64 40.32C.768 96.32 0 99.264 0 102.4s.768 6.08 2.368 8.64l57.344 93.76h59.712L27.008 53.504zM59.712 0L33.92 42.112l29.888 48.896L119.488 0H59.712zm169.28 151.296l24.64-40.32c1.6-2.496 2.368-5.44 2.368-8.576s-.768-6.08-2.368-8.64L196.288 0h-59.712l92.416 151.296zM196.288 204.8l25.792-42.112-29.888-48.896-55.68 91.008h59.776z"/>
    </symbol>

    <symbol viewBox="0 0 24 24" id="icon-time" xmlns="http://www.w3.org/2000/svg">
      <path d="M11 6v8h7v-2h-5V6h-2zm10.854 7.683l1.998.159a11.942 11.942 0 0 1-.652 2.46l-1.8-.905c.2-.551.353-1.123.454-1.714zm-2.548 7.826l-1.413-1.443a9.946 9.946 0 0 1-1.555.933l.669 1.899a11.93 11.93 0 0 0 2.299-1.389zm1.226-4.309a10.091 10.091 0 0 1-1.149 1.528l1.404 1.433a12.038 12.038 0 0 0 1.539-2.058l-1.794-.903zM0 12c0 6.627 5.375 12 12.004 12a11.98 11.98 0 0 0 3.12-.424l-.665-1.894c-.787.2-1.607.318-2.455.318-5.516 0-10.003-4.486-10.003-10S6.488 2 12.004 2c2.235 0 4.293.744 5.959 1.989l-2.05 2.049 7.015 1.354L21.573.379l-2.184 2.183A11.919 11.919 0 0 0 12.004 0C5.375 0 0 5.373 0 12zm23.773-2.359h-2.076c.163.661.261 1.344.288 2.047l2.015.161a12.144 12.144 0 0 0-.227-2.208z"/>
    </symbol>


    <symbol viewBox="0 0 90.1 90.1" id="instagram" xmlns="http://www.w3.org/2000/svg">
      <path d="M75.1 0H14.9C6.7 0 0 6.7 0 14.9v60.3c0 8.2 6.7 14.9 14.9 14.9h60.3c8.2 0 14.9-6.7 14.9-14.9V14.9C90 6.7 83.3 0 75.1 0zm5 14.9v7.9c0 2.5-2 4.5-4.5 4.5h-8.3c-2.5 0-4.5-2-4.5-4.5v-8.3c0-2.5 2-4.5 4.5-4.5h8.3c2.5 0 4.5 2 4.5 4.5v.4zM62.1 45c0 9.5-7.7 17.1-17.1 17.1-9.5 0-17.1-7.7-17.1-17.1S35.6 27.9 45 27.9 62.1 35.5 62.1 45zm13 35.1H14.9c-2.7 0-5-2.2-5-5V35.8h9.6c-1 2.9-1.6 5.9-1.6 9.2C17.9 59.9 30 72 45 72c14.9 0 27-12.1 27-27 0-3.2-.6-6.3-1.6-9.2H80v39.3c.1 2.8-2.1 5-4.9 5z"/>
    </symbol>

    <symbol viewBox="0 0 470.5 470.5" id="linkedin" xmlns="http://www.w3.org/2000/svg">
      <path d="M150.65,100.682c0,27.992-22.508,50.683-50.273,50.683c-27.765,0-50.273-22.691-50.273-50.683 C50.104,72.691,72.612,50,100.377,50C128.143,50,150.65,72.691,150.65,100.682z M143.294,187.333H58.277V462h85.017V187.333z M279.195,187.333h-81.541V462h81.541c0,0,0-101.877,0-144.181c0-38.624,17.779-61.615,51.807-61.615 c31.268,0,46.289,22.071,46.289,61.615c0,39.545,0,144.181,0,144.181h84.605c0,0,0-100.344,0-173.915 s-41.689-109.131-99.934-109.131s-82.768,45.369-82.768,45.369V187.333z"/>
    </symbol>


    <symbol viewBox="0 0 24 24" id="twitter" xmlns="http://www.w3.org/2000/svg">
      <path d="M24 4.6c-.9.4-1.8.7-2.8.8 1-.6 1.8-1.6 2.2-2.7-1 .6-2 1-3.1 1.2-.9-1-2.2-1.6-3.6-1.6-3.2 0-5.5 3-4.8 6-4.2-.2-7.8-2.2-10.2-5.2C.4 5.4 1 8.3 3.2 9.7c-.8 0-1.6-.2-2.2-.6-.1 2.3 1.6 4.4 3.9 4.9-.7.2-1.5.2-2.2.1.6 2 2.4 3.4 4.6 3.4-2.1 1.6-4.7 2.3-7.3 2 2.2 1.4 4.8 2.2 7.5 2.2 9.1 0 14.3-7.7 14-14.6 1-.7 1.8-1.6 2.5-2.5z"/>
    </symbol>


    <symbol viewBox="0 0 100 125" id="link" xmlns="http://www.w3.org/2000/svg">
      <path d="M61 23.038l30 25-30 25v-13c-1.7-.1-31.4-1-52 17 8.3-25.4 34.2-36.5 52-41z"/>
    </symbol>



      <symbol viewBox="0 0 80 80" id="octo" xmlns="http://www.w3.org/2000/svg">
        <path class="ost0" d="M61.3 18.9l-21.2-8.8-21.2 8.8-8.8 21.3 8.8 21.2 21.3 8.7 21.2-8.8 8.7-21.2z"/>
      </symbol>


      <symbol viewBox="0 0 80 80" id="octo-bordered" xmlns="http://www.w3.org/2000/svg">
        <path d="M65.5 14.7L40.1 4.2 14.7 14.7 4.2 40.2l10.5 25.4L40.2 76l25.4-10.5L76 40.1z"/>
      </symbol>


      <symbol viewBox="0 0 24 24" id="phone" xmlns="http://www.w3.org/2000/svg">
        <path d="M6.62 10.79c1.44 2.83 3.76 5.14 6.59 6.59l2.2-2.2c.27-.27.67-.36 1.02-.24 1.12.37 2.33.57 3.57.57.55 0 1 .45 1 1V20c0 .55-.45 1-1 1-9.39 0-17-7.61-17-17 0-.55.45-1 1-1h3.5c.55 0 1 .45 1 1 0 1.25.2 2.45.57 3.57.11.35.03.74-.25 1.02l-2.2 2.2z"/>
      </symbol>


      <symbol viewBox="0 0 24 24" id="play" xmlns="http://www.w3.org/2000/svg">
        <path d="M20.5 3.7L12 .2 3.6 3.7.1 12.1l3.5 8.4L12 24l8.4-3.5 3.5-8.4-3.4-8.4zM9.6 15.9V8.1l7 4-7 3.8z"/>
      </symbol>


      <symbol viewBox="0 0 24.7 24.7" id="plus" xmlns="http://www.w3.org/2000/svg">
        <path d="M24.7 11.3v2.2H0v-2.2z"/>
        <path d="M13.4 24.7h-2.2V0h2.2z"/>
      </symbol>


      <symbol viewBox="0 0 24 24" id="share" xmlns="http://www.w3.org/2000/svg">
        <path d="M5 9c1.7 0 3 1.3 3 3s-1.3 3-3 3-3-1.3-3-3 1.3-3 3-3zm0-2c-2.8 0-5 2.2-5 5s2.2 5 5 5 5-2.2 5-5-2.2-5-5-5zm15 9c-1.2 0-2.2.5-2.9 1.3l-5.5-2.9c-.2.6-.5 1.2-.9 1.8l5.5 2.9c-.2.3-.2.6-.2.9 0 2.2 1.8 4 4 4s4-1.8 4-4-1.8-4-4-4zm0 6c-1.1 0-2-.9-2-2s.9-2 2-2 2 .9 2 2-.9 2-2 2zm0-22c-2.2 0-4 1.8-4 4 0 .3 0 .6.1.9l-5.5 2.9c.4.6.7 1.2 1 1.8l5.5-2.9c.7.8 1.7 1.3 2.9 1.3 2.2 0 4-1.8 4-4s-1.8-4-4-4zm0 6c-1.1 0-2-.9-2-2s.9-2 2-2 2 .9 2 2-.9 2-2 2z"/>
      </symbol>


      <symbol id="zoom" viewBox="0 0 23.9 23.9" xmlns="http://www.w3.org/2000/svg">
        <style>.vst0{clip-path:url(#vSVGID_2_)}
        </style>
        <defs>
          <path id="vSVGID_1_" d="M0 0h23.9v23.9H0z"/>
        </defs>
        <clipPath id="vSVGID_2_">
          <use xlink:href="#vSVGID_1_" overflow="visible"/>
        </clipPath>
        <path class="vst0" d="M11.1 9.1c-1.1 0-2 .9-2 2s.9 2 2 2 2-.9 2-2-.9-2-2-2"/>
        <path class="vst0" d="M20.4 3.5L11.9 0 3.5 3.5 0 11.9l3.5 8.4 8.4 3.5 8.4-3.5 3.5-8.4-3.4-8.4zm-5.6 12.4l-2.1-2.1c-.5.3-1 .4-1.6.4-1.7 0-3.1-1.4-3.1-3.1C8 9.4 9.4 8 11.1 8s3.1 1.4 3.1 3.1c0 .6-.2 1.2-.5 1.7l2.1 2.1-1 1z"/>
      </symbol>


    </svg>
