<?xml version="1.0" standalone="no"?>
<!DOCTYPE svg PUBLIC "-//W3C//DTD SVG 20010904//EN"
 "http://www.w3.org/TR/2001/REC-SVG-20010904/DTD/svg10.dtd">
<svg version="1.0" xmlns="http://www.w3.org/2000/svg"
 width="700.000000pt" height="700.000000pt" viewBox="0 0 700.000000 700.000000"
 preserveAspectRatio="xMidYMid meet">
<metadata>
Created by potrace 1.11, written by Peter Selinger 2001-2013
</metadata>
<g transform="translate(0.000000,700.000000) scale(0.100000,-0.100000)"
fill="#000000" stroke="none">
<path d="M328 6676 c0 -1 -2 -1430 -3 -3177 l-1 -3176 3176 0 3177 0 0 3177 0
3176 -3174 0 c-1745 0 -3174 0 -3175 0z m6062 -3176 l0 -2890 -2890 0 -2890 0
0 2890 0 2890 2890 0 2890 0 0 -2890z"/>
<path d="M3324 5115 c-98 -151 -197 -304 -219 -338 -22 -35 -76 -119 -121
-188 -44 -68 -111 -171 -149 -229 -37 -58 -102 -158 -144 -223 -42 -64 -116
-179 -165 -255 -49 -75 -117 -180 -151 -232 -34 -52 -86 -133 -116 -180 -30
-46 -90 -139 -134 -207 -44 -67 -129 -199 -190 -293 -118 -182 -431 -665 -546
-843 -39 -60 -69 -110 -67 -113 3 -2 987 -3 2187 -2 l2181 3 -92 142 c-51 79
-127 195 -168 259 -41 64 -120 186 -175 270 -55 85 -131 202 -169 261 -38 60
-102 158 -141 218 -40 61 -123 189 -185 285 -62 96 -139 216 -171 265 -189
292 -338 522 -495 765 -292 451 -384 592 -425 653 -21 32 -39 59 -39 61 0 3
-29 48 -64 101 l-63 96 -179 -276z m483 -723 c81 -125 394 -609 458 -707 18
-27 58 -90 91 -140 32 -49 154 -238 272 -420 118 -181 235 -363 261 -403 25
-40 97 -150 159 -245 l112 -172 -1652 -3 c-908 -1 -1653 0 -1655 2 -3 2 26 51
63 108 37 56 91 139 119 183 29 44 157 242 285 440 128 198 271 419 317 490
205 315 335 516 428 660 55 86 136 211 180 278 94 144 168 259 220 341 l37 58
112 -171 c61 -94 148 -229 193 -299z"/>
</g>
</svg>
